<?xml version="1.0" encoding="utf-8"?>
<!-- Generator: Adobe Illustrator 27.2.0, SVG Export Plug-In . SVG Version: 6.00 Build 0)  -->
<svg version="1.1" id="Layer_1" xmlns="http://www.w3.org/2000/svg" xmlns:xlink="http://www.w3.org/1999/xlink" x="0px" y="0px"
	 viewBox="0 0 50 50" style="enable-background:new 0 0 50 50;" xml:space="preserve">
<style type="text/css">
	.st0{fill:url(#SVGID_1_);}
	.st1{fill:url(#SVGID_00000110464663608583753850000014299876508272807614_);}
	.st2{fill:url(#SVGID_00000042002155147194896590000015526819553234272428_);}
	.st3{fill:url(#SVGID_00000060738452960565654170000005009265145587269553_);}
	.st4{fill:url(#SVGID_00000016053302972253895580000013842282742355868832_);}
	.st5{fill:url(#SVGID_00000071555217857933205900000002326178311169965211_);}
</style>
<g>
	
		<linearGradient id="SVGID_1_" gradientUnits="userSpaceOnUse" x1="6.3613" y1="27.1757" x2="23.4278" y2="26.8497" gradientTransform="matrix(1 0 0 -1 0 52)">
		<stop  offset="0.1601" style="stop-color:#8000B1"/>
		<stop  offset="0.566" style="stop-color:#560D6E"/>
		<stop  offset="0.6922" style="stop-color:#B6167C"/>
		<stop  offset="0.9386" style="stop-color:#EF8474"/>
	</linearGradient>
	<path class="st0" d="M14.6,42.4C14.6,42.4,14.6,42.4,14.6,42.4c-2.4,0-4.6-1.9-6.1-5.3c-1.5-3.3-2.3-7.6-2.2-12.2
		c0.2-9.8,4.1-17.4,8.9-17.3c4.8,0.1,8.4,7.8,8.2,17.6c-0.1,4.6-1,8.9-2.6,12.2C19.1,40.6,17,42.4,14.6,42.4z M7.3,24.8
		c-0.1,4.5,0.7,8.7,2.1,11.9c1.4,3.1,3.2,4.8,5.2,4.8c2,0,3.9-1.6,5.4-4.6c1.6-3.1,2.5-7.3,2.5-11.8c0.2-9.1-3.1-16.6-7.3-16.7
		c0,0,0,0-0.1,0C11,8.5,7.4,15.8,7.3,24.8z"/>
	
		<linearGradient id="SVGID_00000140734353204781590680000014978243556907620263_" gradientUnits="userSpaceOnUse" x1="10.4441" y1="27.1753" x2="27.5113" y2="26.8492" gradientTransform="matrix(1 0 0 -1 0 52)">
		<stop  offset="0.1601" style="stop-color:#8000B1"/>
		<stop  offset="0.566" style="stop-color:#560D6E"/>
		<stop  offset="0.6922" style="stop-color:#B6167C"/>
		<stop  offset="0.9386" style="stop-color:#EF8474"/>
	</linearGradient>
	<path style="fill:url(#SVGID_00000140734353204781590680000014978243556907620263_);" d="M10.4,24.8c0.1-7.8,2.2-14.7,5.4-17.7
		c1.1-1.1,2.3-1.6,3.5-1.6c4.8,0.1,8.4,8.7,8.2,19.6c-0.1,7.8-2.2,14.7-5.4,17.7c-1.1,1-2.2,1.6-3.4,1.6c0,0-0.1,0-0.1,0
		C13.8,44.4,10.2,35.7,10.4,24.8z M19.2,6.4c-0.9,0-1.9,0.4-2.8,1.3c-3,2.8-5,9.6-5.1,17.1c-0.2,10.1,3.2,18.6,7.3,18.7
		c1,0,1.9-0.4,2.9-1.3c3-2.9,5-9.6,5.1-17.1C26.8,15.1,23.4,6.5,19.2,6.4C19.2,6.4,19.2,6.4,19.2,6.4z"/>
	
		<linearGradient id="SVGID_00000102502967178195810350000017001577755790676129_" gradientUnits="userSpaceOnUse" x1="14.4425" y1="27.1624" x2="31.5105" y2="26.8364" gradientTransform="matrix(1 0 0 -1 0 52)">
		<stop  offset="0.1601" style="stop-color:#8000B1"/>
		<stop  offset="0.566" style="stop-color:#560D6E"/>
		<stop  offset="0.6922" style="stop-color:#B6167C"/>
		<stop  offset="0.9386" style="stop-color:#EF8474"/>
	</linearGradient>
	<path style="fill:url(#SVGID_00000102502967178195810350000017001577755790676129_);" d="M14.4,24.8c0.1-8.2,2.3-15.5,5.5-18.6
		c1.1-1,2.2-1.5,3.4-1.5c4.8,0.1,8.4,9.1,8.2,20.5c-0.1,8.2-2.3,15.5-5.5,18.6c-1,1-2.1,1.5-3.3,1.5c0,0-0.1,0-0.1,0
		C17.9,45.2,14.3,36.2,14.4,24.8z M15.3,24.8c-0.2,10.5,3.2,19.5,7.3,19.6c0.9,0,1.8-0.4,2.7-1.3c3-2.9,5.1-10.1,5.2-18
		c0.2-10.5-3.2-19.5-7.3-19.6c-0.9,0-1.8,0.4-2.7,1.3C17.6,9.7,15.5,16.9,15.3,24.8z"/>
	
		<linearGradient id="SVGID_00000085209217331821281270000007742657992812010378_" gradientUnits="userSpaceOnUse" x1="18.5213" y1="27.1621" x2="35.5891" y2="26.836" gradientTransform="matrix(1 0 0 -1 0 52)">
		<stop  offset="0.1601" style="stop-color:#8000B1"/>
		<stop  offset="0.566" style="stop-color:#560D6E"/>
		<stop  offset="0.6922" style="stop-color:#B6167C"/>
		<stop  offset="0.9386" style="stop-color:#EF8474"/>
	</linearGradient>
	<path style="fill:url(#SVGID_00000085209217331821281270000007742657992812010378_);" d="M26.8,45.3C26.8,45.3,26.7,45.3,26.8,45.3
		c-4.9-0.1-8.5-9.1-8.3-20.5c0.1-8.2,2.3-15.5,5.5-18.6c1.1-1,2.2-1.5,3.4-1.5c4.8,0.1,8.4,9.1,8.2,20.5c-0.1,8.2-2.3,15.5-5.5,18.6
		C29,44.8,27.9,45.3,26.8,45.3z M19.4,24.8c-0.2,10.5,3.2,19.5,7.3,19.6c0.9,0,1.8-0.4,2.7-1.3c3-2.9,5.1-10.1,5.2-18
		c0.2-10.5-3.2-19.5-7.3-19.6c0,0,0,0-0.1,0c-0.9,0-1.8,0.4-2.7,1.3C21.6,9.7,19.5,16.9,19.4,24.8z"/>
	
		<linearGradient id="SVGID_00000092441777872140607490000012031443498964939141_" gradientUnits="userSpaceOnUse" x1="22.5309" y1="27.1754" x2="39.5981" y2="26.8493" gradientTransform="matrix(1 0 0 -1 0 52)">
		<stop  offset="0.1601" style="stop-color:#8000B1"/>
		<stop  offset="0.566" style="stop-color:#560D6E"/>
		<stop  offset="0.6922" style="stop-color:#B6167C"/>
		<stop  offset="0.9386" style="stop-color:#EF8474"/>
	</linearGradient>
	<path style="fill:url(#SVGID_00000092441777872140607490000012031443498964939141_);" d="M22.5,24.8c0.1-7.8,2.2-14.7,5.4-17.7
		C29,6,30.1,5.5,31.4,5.5c4.8,0.1,8.4,8.7,8.2,19.6c-0.1,7.8-2.2,14.7-5.4,17.7c-1.1,1-2.2,1.6-3.4,1.6c0,0-0.1,0-0.1,0
		C25.9,44.4,22.3,35.7,22.5,24.8z M31.3,6.4c-0.9,0-1.9,0.4-2.8,1.3c-3,2.8-5,9.6-5.1,17.1c-0.2,10.1,3.2,18.6,7.3,18.7
		c1,0,1.9-0.4,2.9-1.3c3-2.9,5-9.6,5.1-17.1C38.8,15.1,35.5,6.5,31.3,6.4C31.3,6.4,31.3,6.4,31.3,6.4z"/>
	
		<linearGradient id="SVGID_00000078730788489717263050000008673948770613070009_" gradientUnits="userSpaceOnUse" x1="26.5861" y1="27.1624" x2="43.6392" y2="26.8366" gradientTransform="matrix(1 0 0 -1 0 52)">
		<stop  offset="0.1601" style="stop-color:#8000B1"/>
		<stop  offset="0.566" style="stop-color:#560D6E"/>
		<stop  offset="0.6922" style="stop-color:#B6167C"/>
		<stop  offset="0.9386" style="stop-color:#EF8474"/>
	</linearGradient>
	<path style="fill:url(#SVGID_00000078730788489717263050000008673948770613070009_);" d="M26.6,24.8c0.2-9.7,4-17.3,8.8-17.3
		c0,0,0.1,0,0.1,0c4.8,0.1,8.4,7.8,8.2,17.6c-0.1,4.6-1,8.9-2.6,12.2c-1.6,3.3-3.8,5.1-6.1,5.1c0,0-0.1,0-0.1,0
		c-2.3,0-4.5-1.9-6-5.3C27.3,33.8,26.5,29.4,26.6,24.8z M27.5,24.8c-0.1,4.5,0.7,8.7,2.1,11.9c1.4,3.1,3.2,4.8,5.2,4.8
		c2,0,3.9-1.6,5.4-4.6c1.6-3.1,2.5-7.3,2.5-11.8c0.2-9.1-3.1-16.6-7.3-16.7c0,0,0,0-0.1,0C31.2,8.5,27.7,15.8,27.5,24.8z"/>
</g>
</svg>
